<svg width="1000" height="1000" viewBox="0 0 1000 1000" fill="none" xmlns="http://www.w3.org/2000/svg">
<path d="M336.823 616.328V998.729H228.62V886.115C228.62 836.637 201.503 796.524 168.185 796.524C134.868 796.524 107.751 836.637 107.751 886.115V998.729H0V616.328H63.0618V671.581C63.0618 695.227 76.0418 714.347 91.9647 714.347C107.888 714.347 120.868 695.227 120.868 671.581V616.328H215.461V671.347C215.461 694.993 228.441 714.113 244.364 714.113C260.287 714.113 273.267 694.993 273.267 671.347V616.328H336.823Z" fill="#182232"/>
<path d="M157.449 380.247V617.53H185.546V511.147C185.546 511.147 192.725 489.297 218.899 498.935C253.534 511.691 296.205 503.047 323.598 429.692C240.589 470.143 238.366 331.137 157.449 380.247Z" fill="#182232"/>
<path d="M1000 616.328V998.728H891.797V886.115C891.797 836.637 864.68 796.524 831.362 796.524C798.045 796.524 770.929 836.637 770.929 886.115V998.728H663.177V616.328H726.239V671.581C726.239 695.227 739.219 714.347 755.142 714.347C771.065 714.347 784.045 695.227 784.045 671.581V616.328H878.638V671.346C878.638 694.992 891.618 714.113 907.541 714.113C923.464 714.113 936.444 694.992 936.444 671.346V616.328H1000Z" fill="#182232"/>
<path d="M818.634 380.248V617.53H846.731V511.147C846.731 511.147 853.911 489.297 880.084 498.936C914.719 511.691 957.39 503.047 984.783 429.692C901.775 470.144 899.551 331.137 818.634 380.248Z" fill="#182232"/>
<path d="M668.412 243.395V1000H560.208V887.387C560.208 837.908 533.092 797.796 499.774 797.796C466.456 797.796 439.34 837.908 439.34 887.387V1000H331.589V243.395H394.65V298.648C394.65 322.295 407.63 341.415 423.553 341.415C439.477 341.415 452.457 322.295 452.457 298.648V243.395H547.049V298.414C547.049 322.06 560.029 341.181 575.953 341.181C591.876 341.181 604.856 322.06 604.856 298.414V243.395H668.412Z" fill="#182232"/>
<path d="M481.593 10.6476V247.93H509.69V141.547C509.69 141.547 516.87 119.697 543.043 129.336C577.678 142.091 620.349 133.447 647.742 60.0923C564.733 100.543 562.51 -38.4631 481.593 10.6476Z" fill="#182232"/>
<path d="M499.356 558.204L572.385 516.511L499.356 626.518L426.328 516.511L499.356 558.204Z" fill="#AFAFAF"/>
<path d="M499.356 558.204L572.385 516.511L499.356 626.518M499.356 558.204L426.328 516.511L499.356 626.518M499.356 558.204V626.518" stroke="#182232" stroke-width="0.5" stroke-linejoin="round"/>
<g filter="url(#filter0_d_7_152)">
<path d="M499.356 392.137L572.385 506.088L499.356 547.78L426.328 506.088L499.356 392.137Z" fill="#C8C8C8"/>
<path d="M499.356 392.137L572.385 506.088M499.356 392.137L426.328 506.088M499.356 392.137V482.283M572.385 506.088L499.356 547.78M572.385 506.088L499.356 482.283M499.356 547.78L426.328 506.088M499.356 547.78V482.283M426.328 506.088L499.356 482.283" stroke="#182232" stroke-width="0.5" stroke-linejoin="round"/>
</g>
<defs>
<filter id="filter0_d_7_152" x="422.078" y="391.887" width="154.557" height="164.143" filterUnits="userSpaceOnUse" color-interpolation-filters="sRGB">
<feFlood flood-opacity="0" result="BackgroundImageFix"/>
<feColorMatrix in="SourceAlpha" type="matrix" values="0 0 0 0 0 0 0 0 0 0 0 0 0 0 0 0 0 0 127 0" result="hardAlpha"/>
<feOffset dy="4"/>
<feGaussianBlur stdDeviation="2"/>
<feComposite in2="hardAlpha" operator="out"/>
<feColorMatrix type="matrix" values="0 0 0 0 0 0 0 0 0 0 0 0 0 0 0 0 0 0 0.25 0"/>
<feBlend mode="normal" in2="BackgroundImageFix" result="effect1_dropShadow_7_152"/>
<feBlend mode="normal" in="SourceGraphic" in2="effect1_dropShadow_7_152" result="shape"/>
</filter>
</defs>
</svg>
